# xmcd CD database file
#
# Track frame offsets:
#	183
#	14913
#	26775
#	37825
#	47798
#	58333
#	70098
#	80840
#	92543
#	104920
#	116875
#	125843
#	136043
#	147183
#	159745
#	170895
#	181593
#	195988
#	207385
#	219050
#
# Disc length: 3069 seconds
#
# Revision: 0
# Processed by: cddbd v1.4PL0 Copyright (c) Steve Scherf et al.
# Submitted via: NeoAudio 1.5.6
#
DISCID=2d0bfb14
DTITLE=Patsy Cline - Through the Eyes of Patsy Cline - An Anthology Disc One
DYEAR=1998
DGENRE=Country
TTITLE0=A Church, A Courtnoom, then Goodbye
TTITLE1=Honky Tonk Merry Go Round
TTITLE2=Hidin' Out
TTITLE3=Turn the Cards Slowly
TTITLE4=I Love You Honey
TTITLE5=I've Loved And Lost Again
TTITLE6=Stop Look And Listen
TTITLE7=Walkin' After Midnight
TTITLE8=A Poor Man's Roses Or A Rich Man's Gold
TTITLE9=Today, Tomorrow, Forever
TTITLE10=Try Again
TTITLE11=Three Cigarettes In An Ashtray
TTITLE12=A Stranger In My Arms
TTITLE13=Finger Prints
TTITLE14=Don't Ever Leave Me Again
TTITLE15=I Don't Wanna
TTITLE16=Then You'll Know
TTITLE17=That Wonderful Someone
TTITLE18=In Care of The Blues
TTITLE19=Hungry For Love
EXTD=YEAR: 1998
EXTT0=
EXTT1=
EXTT2=
EXTT3=
EXTT4=
EXTT5=
EXTT6=
EXTT7=
EXTT8=
EXTT9=
EXTT10=
EXTT11=
EXTT12=
EXTT13=
EXTT14=
EXTT15=
EXTT16=
EXTT17=
EXTT18=
EXTT19=
PLAYORDER=
